<svg width="22" height="21" viewBox="0 0 22 21" fill="none" xmlns="http://www.w3.org/2000/svg">
<path d="M11.4408 20.9753C17.2329 20.9753 21.9284 16.2798 21.9284 10.4876C21.9284 4.69547 17.2329 0 11.4408 0C5.64859 0 0.953125 4.69547 0.953125 10.4876C0.953125 16.2798 5.64859 20.9753 11.4408 20.9753Z" fill="#3C5A99"/>
<path d="M12.2542 15.7317V10.9549H13.8642L14.1059 9.08473H12.2542V7.89463C12.2542 7.35386 12.4038 6.9872 13.178 6.9872H14.1592V5.31983C13.9892 5.2973 13.4034 5.24609 12.7213 5.24609C11.2976 5.24609 10.3226 6.1146 10.3226 7.71028V9.08678H8.71875V10.9569H10.3226V15.7317H12.2542Z" fill="white"/>
</svg>
