<svg width="21" height="21" viewBox="0 0 21 21" fill="none" xmlns="http://www.w3.org/2000/svg">
<path d="M10.4876 20.9753C16.2798 20.9753 20.9753 16.2798 20.9753 10.4876C20.9753 4.69547 16.2798 0 10.4876 0C4.69547 0 0 4.69547 0 10.4876C0 16.2798 4.69547 20.9753 10.4876 20.9753Z" fill="#E4405F"/>
<path d="M10.484 5.24414C9.06034 5.24414 8.88213 5.25029 8.32293 5.27487C7.76372 5.30149 7.38478 5.38957 7.05089 5.51862C6.70677 5.65177 6.41385 5.83202 6.12094 6.12289C5.82802 6.41376 5.64981 6.70667 5.51667 7.05285C5.38762 7.38673 5.29954 7.76773 5.27291 8.32488C5.24628 8.88408 5.24219 9.06229 5.24219 10.4859C5.24219 11.9095 5.24833 12.0877 5.27291 12.6469C5.29954 13.2041 5.38762 13.5851 5.51667 13.919C5.64981 14.2631 5.83007 14.556 6.12094 14.8489C6.4118 15.1398 6.70472 15.32 7.05089 15.4532C7.38478 15.5822 7.76577 15.6703 8.32293 15.6969C8.88213 15.7236 9.06034 15.7277 10.484 15.7277C11.9076 15.7277 12.0858 15.7215 12.645 15.6969C13.2021 15.6703 13.5831 15.5822 13.917 15.4532C14.2611 15.32 14.5541 15.1398 14.847 14.8489C15.1378 14.5581 15.3181 14.2651 15.4512 13.919C15.5803 13.5851 15.6684 13.2041 15.695 12.6469C15.7216 12.0877 15.7257 11.9095 15.7257 10.4859C15.7257 9.06229 15.7196 8.88408 15.695 8.32488C15.6684 7.76773 15.5803 7.38673 15.4512 7.05285C15.3181 6.70872 15.1378 6.4158 14.847 6.12289C14.5561 5.83202 14.2632 5.65177 13.917 5.51862C13.5831 5.38957 13.2021 5.30149 12.645 5.27487C12.0858 5.25029 11.9076 5.24414 10.484 5.24414ZM10.484 6.18844C11.883 6.18844 12.051 6.19458 12.604 6.21916C13.1161 6.24374 13.3926 6.32773 13.577 6.40147C13.8228 6.49569 13.9969 6.6104 14.1812 6.7927C14.3636 6.97706 14.4783 7.15117 14.5725 7.39697C14.6442 7.58132 14.7302 7.85785 14.7527 8.36994C14.7773 8.923 14.7835 9.08892 14.7835 10.49C14.7835 11.8911 14.7773 12.057 14.7507 12.6101C14.7241 13.1221 14.638 13.3987 14.5663 13.583C14.468 13.8288 14.3574 14.0029 14.1731 14.1873C13.9908 14.3696 13.8125 14.4843 13.5708 14.5785C13.3865 14.6502 13.1059 14.7363 12.5938 14.7588C12.0366 14.7834 11.8727 14.7895 10.4696 14.7895C9.06648 14.7895 8.90261 14.7834 8.34546 14.7567C7.83337 14.7301 7.55274 14.6441 7.36839 14.5724C7.12054 14.4741 6.94847 14.3635 6.76617 14.1791C6.58182 13.9968 6.46506 13.8186 6.37288 13.5769C6.30119 13.3925 6.21516 13.1119 6.18853 12.5998C6.16805 12.0488 6.1619 11.8788 6.1619 10.4839C6.1619 9.08687 6.16805 8.91686 6.18853 8.3597C6.21516 7.84761 6.29914 7.56699 6.37288 7.38263C6.46506 7.13273 6.58182 6.96272 6.76617 6.77837C6.94847 6.59606 7.12054 6.47726 7.36839 6.38508C7.55274 6.31339 7.82722 6.22736 8.33931 6.20073C8.89647 6.18024 9.06034 6.1741 10.4635 6.1741L10.484 6.18844ZM10.484 7.79435C8.99684 7.79435 7.79035 9.00084 7.79035 10.488C7.79035 11.9751 8.99684 13.1816 10.484 13.1816C11.9711 13.1816 13.1776 11.9751 13.1776 10.488C13.1776 9.00084 11.9711 7.79435 10.484 7.79435ZM10.484 12.2352C9.51917 12.2352 8.7367 11.4527 8.7367 10.488C8.7367 9.52317 9.51917 8.7407 10.484 8.7407C11.4487 8.7407 12.2312 9.52317 12.2312 10.488C12.2312 11.4527 11.4487 12.2352 10.484 12.2352ZM13.9129 7.68989C13.9129 8.03811 13.6302 8.31874 13.2841 8.31874C12.9358 8.31874 12.6552 8.03606 12.6552 7.68989C12.6552 7.34371 12.9379 7.06104 13.2841 7.06104C13.6302 7.05899 13.9129 7.34167 13.9129 7.68989Z" fill="white"/>
</svg>
