<svg width="22" height="21" viewBox="0 0 22 21" fill="none" xmlns="http://www.w3.org/2000/svg">
<path d="M11.4642 20.9753C17.2563 20.9753 21.9518 16.2798 21.9518 10.4876C21.9518 4.69547 17.2563 0 11.4642 0C5.67203 0 0.976562 4.69547 0.976562 10.4876C0.976562 16.2798 5.67203 20.9753 11.4642 20.9753Z" fill="#007AB9"/>
<path d="M17.7325 11.3308V15.6546H15.2257V11.6205C15.2257 10.6076 14.8638 9.91591 13.9561 9.91591C13.2634 9.91591 12.852 10.3816 12.6702 10.8325C12.6043 10.9937 12.5872 11.2175 12.5872 11.4435V15.6544H10.0802C10.0802 15.6544 10.1139 8.82205 10.0802 8.11481H12.5874V9.18324C12.5824 9.19166 12.5753 9.19988 12.5708 9.20792H12.5874V9.18324C12.9206 8.67062 13.5147 7.93777 14.8467 7.93777C16.496 7.93777 17.7325 9.01536 17.7325 11.3308ZM7.45765 4.48047C6.6001 4.48047 6.03906 5.04338 6.03906 5.78296C6.03906 6.50684 6.58384 7.08602 7.42475 7.08602H7.44101C8.31539 7.08602 8.85904 6.50684 8.85904 5.78296C8.84241 5.04338 8.31539 4.48047 7.45765 4.48047ZM6.18806 15.6546H8.69415V8.11481H6.18806V15.6546Z" fill="#F1F2F2"/>
</svg>
