<svg width="12" height="11" viewBox="0 0 12 11" fill="none" xmlns="http://www.w3.org/2000/svg">
<g clip-path="url(#clip0_930_491)">
<path d="M1.15303 5.43381C1.15277 6.35802 1.39281 7.26045 1.84925 8.05586L1.10938 10.7735L3.87392 10.0443C4.63855 10.4631 5.49527 10.6825 6.36587 10.6826H6.36816C9.24217 10.6826 11.5817 8.32979 11.5829 5.43794C11.5835 4.03664 11.0415 2.71894 10.0568 1.72758C9.07235 0.736298 7.76301 0.190093 6.36795 0.189453C3.4936 0.189453 1.15426 2.54209 1.15307 5.43381" fill="url(#paint0_linear_930_491)"/>
<path d="M0.967222 5.43247C0.966925 6.38993 1.21557 7.32464 1.68828 8.14853L0.921875 10.9636L3.78554 10.2083C4.57458 10.6411 5.46295 10.8692 6.36692 10.8696H6.36925C9.34637 10.8696 11.7699 8.43218 11.7712 5.43681C11.7717 3.98516 11.2102 2.62009 10.1904 1.59321C9.17045 0.566457 7.81428 0.000596899 6.36925 0C3.39162 0 0.968408 2.43705 0.967222 5.43247ZM2.67264 8.00664L2.56572 7.83588C2.11623 7.11687 1.87899 6.28599 1.87933 5.43281C1.88026 2.9431 3.89433 0.917519 6.37094 0.917519C7.5703 0.918031 8.69744 1.38839 9.54521 2.24178C10.3929 3.09526 10.8594 4.2298 10.8591 5.43647C10.858 7.92618 8.84391 9.95202 6.36925 9.95202H6.36747C5.56169 9.95159 4.77143 9.73389 4.08225 9.3225L3.91824 9.22465L2.21888 9.67288L2.67264 8.00664Z" fill="url(#paint1_linear_930_491)"/>
<path d="M5.01973 3.16161C4.91861 2.93551 4.81219 2.93095 4.71603 2.92699C4.63729 2.92358 4.54728 2.92383 4.45735 2.92383C4.36733 2.92383 4.22108 2.9579 4.09745 3.09369C3.9737 3.22962 3.625 3.55808 3.625 4.22614C3.625 4.89424 4.10868 5.53987 4.17611 5.63056C4.24362 5.72107 5.10987 7.13589 6.4818 7.68018C7.622 8.1325 7.85403 8.04254 8.10149 8.01986C8.34899 7.99726 8.9001 7.69148 9.01253 7.3744C9.12505 7.05736 9.12505 6.7856 9.09132 6.72881C9.05758 6.67223 8.96757 6.63825 8.83259 6.57037C8.69756 6.50246 8.03397 6.17395 7.91027 6.12863C7.78652 6.08335 7.69654 6.06075 7.60653 6.19672C7.51651 6.33247 7.25804 6.63825 7.17925 6.72881C7.10055 6.81958 7.02177 6.83088 6.88683 6.76296C6.75176 6.69483 6.31707 6.55161 5.80135 6.08906C5.40009 5.72913 5.1292 5.28465 5.05046 5.14869C4.97171 5.01294 5.04202 4.93935 5.1097 4.87169C5.17035 4.81084 5.24473 4.71312 5.31228 4.63386C5.37958 4.55456 5.40204 4.49798 5.44705 4.40743C5.4921 4.31678 5.46955 4.23748 5.43586 4.16956C5.40204 4.10164 5.13975 3.43009 5.01973 3.16161Z" fill="white"/>
</g>
<defs>
<linearGradient id="paint0_linear_930_491" x1="524.786" y1="1058.6" x2="524.786" y2="0.189453" gradientUnits="userSpaceOnUse">
<stop stop-color="#1FAF38"/>
<stop offset="1" stop-color="#60D669"/>
</linearGradient>
<linearGradient id="paint1_linear_930_491" x1="543.388" y1="1096.36" x2="543.388" y2="0" gradientUnits="userSpaceOnUse">
<stop stop-color="#F9F9F9"/>
<stop offset="1" stop-color="white"/>
</linearGradient>
<clipPath id="clip0_930_491">
<rect width="10.8493" height="11" fill="white" transform="translate(0.921875)"/>
</clipPath>
</defs>
</svg>
